<mxfile host="app.diagrams.net" agent="Mozilla/5.0 (X11; Linux x86_64) AppleWebKit/537.36 (KHTML, like Gecko) Chrome/128.0.0.0 Safari/537.36 OPR/114.0.0.0" version="24.7.17">
  <diagram id="H8p-flc3e1UOP4B4wcy2" name="use cases">
    <mxGraphModel dx="1600" dy="1487" grid="0" gridSize="10" guides="1" tooltips="1" connect="1" arrows="1" fold="1" page="0" pageScale="1" pageWidth="827" pageHeight="1169" math="0" shadow="0">
      <root>
        <mxCell id="0" />
        <mxCell id="1" parent="0" />
        <mxCell id="fHy38LHa66H2WLfOAh5_-26" value="" style="rounded=0;whiteSpace=wrap;html=1;" parent="1" vertex="1">
          <mxGeometry x="170" y="-529" width="764" height="1511" as="geometry" />
        </mxCell>
        <mxCell id="xH1dkNIcwIo7qIOjblZe-1" value="user" style="shape=umlActor;verticalLabelPosition=bottom;verticalAlign=top;html=1;outlineConnect=0;" parent="1" vertex="1">
          <mxGeometry x="-217" y="276" width="28" height="60" as="geometry" />
        </mxCell>
        <mxCell id="xH1dkNIcwIo7qIOjblZe-5" value="admin" style="shape=umlActor;verticalLabelPosition=bottom;verticalAlign=top;html=1;outlineConnect=0;" parent="1" vertex="1">
          <mxGeometry x="-93" y="628" width="30" height="60" as="geometry" />
        </mxCell>
        <mxCell id="xH1dkNIcwIo7qIOjblZe-7" value="AUTHENTIFICATION" style="ellipse;whiteSpace=wrap;html=1;" parent="1" vertex="1">
          <mxGeometry x="1121" y="206" width="183" height="80" as="geometry" />
        </mxCell>
        <mxCell id="xH1dkNIcwIo7qIOjblZe-8" value="LIKE_POST" style="ellipse;whiteSpace=wrap;html=1;" parent="1" vertex="1">
          <mxGeometry x="326" y="-192" width="126" height="50" as="geometry" />
        </mxCell>
        <mxCell id="xH1dkNIcwIo7qIOjblZe-9" value="COMMENT_POST" style="ellipse;whiteSpace=wrap;html=1;" parent="1" vertex="1">
          <mxGeometry x="304" y="-78" width="141" height="52" as="geometry" />
        </mxCell>
        <mxCell id="xH1dkNIcwIo7qIOjblZe-10" value="SHARE_POST" style="ellipse;whiteSpace=wrap;html=1;" parent="1" vertex="1">
          <mxGeometry x="516" y="122" width="134" height="51" as="geometry" />
        </mxCell>
        <mxCell id="xH1dkNIcwIo7qIOjblZe-11" value="DOWNLOAD_POST" style="ellipse;whiteSpace=wrap;html=1;" parent="1" vertex="1">
          <mxGeometry x="499" y="-32" width="143" height="54" as="geometry" />
        </mxCell>
        <mxCell id="xH1dkNIcwIo7qIOjblZe-12" value="UPLOADE_POST" style="ellipse;whiteSpace=wrap;html=1;" parent="1" vertex="1">
          <mxGeometry x="307" y="52" width="145" height="61" as="geometry" />
        </mxCell>
        <mxCell id="xH1dkNIcwIo7qIOjblZe-13" value="FOLLOW_USER" style="ellipse;whiteSpace=wrap;html=1;" parent="1" vertex="1">
          <mxGeometry x="326" y="173" width="144" height="57" as="geometry" />
        </mxCell>
        <mxCell id="fHy38LHa66H2WLfOAh5_-3" value="ADMIN_BLOCK USER" style="ellipse;whiteSpace=wrap;html=1;" parent="1" vertex="1">
          <mxGeometry x="662" y="713" width="151" height="55" as="geometry" />
        </mxCell>
        <mxCell id="fHy38LHa66H2WLfOAh5_-5" value="SIGNAL_POST" style="ellipse;whiteSpace=wrap;html=1;" parent="1" vertex="1">
          <mxGeometry x="496" y="237" width="120" height="49" as="geometry" />
        </mxCell>
        <mxCell id="fHy38LHa66H2WLfOAh5_-6" value="VERIFY SIGNALED&lt;div&gt;CONTENT&lt;/div&gt;" style="ellipse;whiteSpace=wrap;html=1;" parent="1" vertex="1">
          <mxGeometry x="357" y="737" width="146" height="74" as="geometry" />
        </mxCell>
        <mxCell id="fHy38LHa66H2WLfOAh5_-10" value="DELETE_POST" style="ellipse;whiteSpace=wrap;html=1;" parent="1" vertex="1">
          <mxGeometry x="326" y="-320" width="133" height="62" as="geometry" />
        </mxCell>
        <mxCell id="fHy38LHa66H2WLfOAh5_-27" value="&quot;include&quot;" style="html=1;verticalAlign=bottom;endArrow=open;dashed=1;endSize=8;curved=0;rounded=0;fontSize=12;exitX=1;exitY=0.5;exitDx=0;exitDy=0;entryX=0;entryY=0.5;entryDx=0;entryDy=0;" parent="1" source="fHy38LHa66H2WLfOAh5_-26" target="xH1dkNIcwIo7qIOjblZe-7" edge="1">
          <mxGeometry relative="1" as="geometry">
            <mxPoint x="688" y="363" as="sourcePoint" />
            <mxPoint x="1028" y="497" as="targetPoint" />
          </mxGeometry>
        </mxCell>
        <mxCell id="fHy38LHa66H2WLfOAh5_-30" value="CREATE" style="ellipse;whiteSpace=wrap;html=1;" parent="1" vertex="1">
          <mxGeometry x="1125.75" y="22" width="178.25" height="88" as="geometry" />
        </mxCell>
        <mxCell id="fHy38LHa66H2WLfOAh5_-31" value="&quot;include&quot;" style="html=1;verticalAlign=bottom;endArrow=open;dashed=1;endSize=8;curved=0;rounded=0;fontSize=12;exitX=0.5;exitY=0;exitDx=0;exitDy=0;entryX=0.5;entryY=1;entryDx=0;entryDy=0;" parent="1" source="xH1dkNIcwIo7qIOjblZe-7" target="fHy38LHa66H2WLfOAh5_-30" edge="1">
          <mxGeometry relative="1" as="geometry">
            <mxPoint x="1136" y="420" as="sourcePoint" />
            <mxPoint x="1056" y="420" as="targetPoint" />
          </mxGeometry>
        </mxCell>
        <mxCell id="fHy38LHa66H2WLfOAh5_-32" value="UPDATE" style="ellipse;whiteSpace=wrap;html=1;" parent="1" vertex="1">
          <mxGeometry x="1409" y="85" width="178.25" height="88" as="geometry" />
        </mxCell>
        <mxCell id="fHy38LHa66H2WLfOAh5_-33" value="DELETE" style="ellipse;whiteSpace=wrap;html=1;" parent="1" vertex="1">
          <mxGeometry x="1409" y="198" width="178.25" height="88" as="geometry" />
        </mxCell>
        <mxCell id="fHy38LHa66H2WLfOAh5_-34" value="&quot;include&quot;" style="html=1;verticalAlign=bottom;endArrow=open;dashed=1;endSize=8;curved=0;rounded=0;fontSize=12;exitX=0;exitY=0.5;exitDx=0;exitDy=0;entryX=1;entryY=0;entryDx=0;entryDy=0;" parent="1" source="fHy38LHa66H2WLfOAh5_-32" target="xH1dkNIcwIo7qIOjblZe-7" edge="1">
          <mxGeometry relative="1" as="geometry">
            <mxPoint x="1348" y="203" as="sourcePoint" />
            <mxPoint x="1350" y="107" as="targetPoint" />
          </mxGeometry>
        </mxCell>
        <mxCell id="fHy38LHa66H2WLfOAh5_-35" value="&quot;include&quot;" style="html=1;verticalAlign=bottom;endArrow=open;dashed=1;endSize=8;curved=0;rounded=0;fontSize=12;exitX=0;exitY=0.5;exitDx=0;exitDy=0;entryX=1;entryY=0.5;entryDx=0;entryDy=0;" parent="1" source="fHy38LHa66H2WLfOAh5_-33" target="xH1dkNIcwIo7qIOjblZe-7" edge="1">
          <mxGeometry relative="1" as="geometry">
            <mxPoint x="1344" y="270" as="sourcePoint" />
            <mxPoint x="1346" y="174" as="targetPoint" />
          </mxGeometry>
        </mxCell>
        <mxCell id="nLU9eGW1d1vP4nwb9WE0-2" value="ACCOUNT GESTION" style="shape=umlFrame;whiteSpace=wrap;html=1;pointerEvents=0;width=162;height=60;" parent="1" vertex="1">
          <mxGeometry x="1091" y="-87" width="519" height="393" as="geometry" />
        </mxCell>
        <mxCell id="fHy38LHa66H2WLfOAh5_-12" value="USER_BLOCK POST" style="ellipse;whiteSpace=wrap;html=1;" parent="1" vertex="1">
          <mxGeometry x="621" y="-208" width="151" height="55" as="geometry" />
        </mxCell>
        <mxCell id="fHy38LHa66H2WLfOAh5_-13" value="USER_BLOCK USER" style="ellipse;whiteSpace=wrap;html=1;" parent="1" vertex="1">
          <mxGeometry x="621" y="-298" width="151" height="55" as="geometry" />
        </mxCell>
        <mxCell id="nLU9eGW1d1vP4nwb9WE0-3" value="USER_BLOCK&amp;nbsp;" style="shape=umlFrame;whiteSpace=wrap;html=1;pointerEvents=0;width=162;height=60;" parent="1" vertex="1">
          <mxGeometry x="565" y="-373" width="281" height="267" as="geometry" />
        </mxCell>
        <mxCell id="fHy38LHa66H2WLfOAh5_-4" value="ADMIN_BLOCK&amp;nbsp; POST" style="ellipse;whiteSpace=wrap;html=1;" parent="1" vertex="1">
          <mxGeometry x="644" y="792" width="169" height="56" as="geometry" />
        </mxCell>
        <mxCell id="nLU9eGW1d1vP4nwb9WE0-4" value="ADMIN_BLOCK&amp;nbsp;" style="shape=umlFrame;whiteSpace=wrap;html=1;pointerEvents=0;width=162;height=60;" parent="1" vertex="1">
          <mxGeometry x="588" y="628" width="281" height="267" as="geometry" />
        </mxCell>
        <mxCell id="nLU9eGW1d1vP4nwb9WE0-5" value="ADMIN" style="shape=umlFrame;whiteSpace=wrap;html=1;pointerEvents=0;width=136;height=55;" parent="1" vertex="1">
          <mxGeometry x="286" y="525" width="604" height="400" as="geometry" />
        </mxCell>
        <mxCell id="nLU9eGW1d1vP4nwb9WE0-8" value="USER" style="shape=umlFrame;whiteSpace=wrap;html=1;pointerEvents=0;width=136;height=56;" parent="1" vertex="1">
          <mxGeometry x="247" y="-426" width="634" height="762" as="geometry" />
        </mxCell>
        <mxCell id="nLU9eGW1d1vP4nwb9WE0-11" value="" style="endArrow=none;html=1;rounded=0;fontSize=12;startSize=8;endSize=8;curved=1;exitX=-0.001;exitY=0.546;exitDx=0;exitDy=0;exitPerimeter=0;entryX=1;entryY=0.3333333333333333;entryDx=0;entryDy=0;entryPerimeter=0;" parent="1" source="nLU9eGW1d1vP4nwb9WE0-5" target="xH1dkNIcwIo7qIOjblZe-5" edge="1">
          <mxGeometry width="50" height="50" relative="1" as="geometry">
            <mxPoint x="421" y="617" as="sourcePoint" />
            <mxPoint x="471" y="567" as="targetPoint" />
          </mxGeometry>
        </mxCell>
        <mxCell id="nLU9eGW1d1vP4nwb9WE0-12" value="" style="endArrow=none;html=1;rounded=0;fontSize=12;startSize=8;endSize=8;curved=1;entryX=0.003;entryY=0.785;entryDx=0;entryDy=0;entryPerimeter=0;" parent="1" target="nLU9eGW1d1vP4nwb9WE0-8" edge="1">
          <mxGeometry width="50" height="50" relative="1" as="geometry">
            <mxPoint x="58" y="222" as="sourcePoint" />
            <mxPoint x="84" y="567" as="targetPoint" />
          </mxGeometry>
        </mxCell>
        <mxCell id="4WWzJKlJhSydHnXuJvJs-2" value="sign in&amp;nbsp;&lt;div&gt;user&amp;nbsp;&lt;/div&gt;" style="shape=umlActor;verticalLabelPosition=bottom;verticalAlign=top;html=1;outlineConnect=0;" vertex="1" parent="1">
          <mxGeometry x="-33" y="163" width="28" height="60" as="geometry" />
        </mxCell>
        <mxCell id="4WWzJKlJhSydHnXuJvJs-3" value="sign up&amp;nbsp;&lt;div&gt;user&lt;/div&gt;" style="shape=umlActor;verticalLabelPosition=bottom;verticalAlign=top;html=1;outlineConnect=0;" vertex="1" parent="1">
          <mxGeometry x="-2" y="371" width="28" height="60" as="geometry" />
        </mxCell>
        <mxCell id="4WWzJKlJhSydHnXuJvJs-4" value="Extends" style="endArrow=block;endSize=16;endFill=0;html=1;rounded=0;" edge="1" parent="1" source="xH1dkNIcwIo7qIOjblZe-1" target="4WWzJKlJhSydHnXuJvJs-2">
          <mxGeometry width="160" relative="1" as="geometry">
            <mxPoint x="-147" y="305.13" as="sourcePoint" />
            <mxPoint x="-33" y="202" as="targetPoint" />
          </mxGeometry>
        </mxCell>
        <mxCell id="4WWzJKlJhSydHnXuJvJs-5" value="Extends" style="endArrow=block;endSize=16;endFill=0;html=1;rounded=0;entryX=0;entryY=0.3333333333333333;entryDx=0;entryDy=0;entryPerimeter=0;" edge="1" parent="1" source="xH1dkNIcwIo7qIOjblZe-1" target="4WWzJKlJhSydHnXuJvJs-3">
          <mxGeometry width="160" relative="1" as="geometry">
            <mxPoint x="-149" y="381" as="sourcePoint" />
            <mxPoint y="406" as="targetPoint" />
          </mxGeometry>
        </mxCell>
      </root>
    </mxGraphModel>
  </diagram>
</mxfile>
